<svg xmlns="http://www.w3.org/2000/svg" width="800" height="1120" viewBox="0 0 400 560">
    <defs><radialGradient id="sky"><stop stop-color="#e7b979"/><stop offset=".42" stop-color="#1b3545"/><stop offset="1" stop-color="#0c1725"/></radialGradient>
    <linearGradient id="moon" x2="1" y2="1"><stop stop-color="#fff8dc"/><stop offset="1" stop-color="#e7b979"/></linearGradient></defs>
    <rect width="400" height="560" fill="url(#sky)"/><circle cx="38" cy="212" r="2" fill="#e7b979" opacity=".72"/><circle cx="219" cy="101" r="1" fill="#e7b979" opacity=".72"/><circle cx="120" cy="136" r="3" fill="#e7b979" opacity=".72"/><circle cx="122" cy="410" r="1" fill="#e7b979" opacity=".72"/><circle cx="247" cy="279" r="1" fill="#e7b979" opacity=".72"/><circle cx="323" cy="256" r="2" fill="#e7b979" opacity=".72"/><circle cx="143" cy="88" r="3" fill="#e7b979" opacity=".72"/><circle cx="346" cy="320" r="2" fill="#e7b979" opacity=".72"/><circle cx="23" cy="222" r="2" fill="#e7b979" opacity=".72"/><circle cx="327" cy="401" r="1" fill="#e7b979" opacity=".72"/><circle cx="328" cy="127" r="3" fill="#e7b979" opacity=".72"/><circle cx="76" cy="220" r="3" fill="#e7b979" opacity=".72"/><circle cx="95" cy="332" r="3" fill="#e7b979" opacity=".72"/><circle cx="111" cy="340" r="2" fill="#e7b979" opacity=".72"/><circle cx="135" cy="73" r="3" fill="#e7b979" opacity=".72"/><circle cx="67" cy="223" r="3" fill="#e7b979" opacity=".72"/><circle cx="297" cy="289" r="2" fill="#e7b979" opacity=".72"/><circle cx="328" cy="461" r="3" fill="#e7b979" opacity=".72"/><circle cx="85" cy="390" r="1" fill="#e7b979" opacity=".72"/><circle cx="233" cy="181" r="1" fill="#e7b979" opacity=".72"/><circle cx="311" cy="237" r="2" fill="#e7b979" opacity=".72"/><circle cx="290" cy="109" r="3" fill="#e7b979" opacity=".72"/><circle cx="238" cy="283" r="1" fill="#e7b979" opacity=".72"/><circle cx="211" cy="192" r="3" fill="#e7b979" opacity=".72"/><circle cx="300" cy="476" r="3" fill="#e7b979" opacity=".72"/><circle cx="205" cy="365" r="3" fill="#e7b979" opacity=".72"/><circle cx="183" cy="119" r="2" fill="#e7b979" opacity=".72"/><circle cx="181" cy="140" r="3" fill="#e7b979" opacity=".72"/><circle cx="367" cy="126" r="1" fill="#e7b979" opacity=".72"/><circle cx="237" cy="181" r="1" fill="#e7b979" opacity=".72"/><circle cx="267" cy="182" r="1" fill="#e7b979" opacity=".72"/><circle cx="211" cy="466" r="1" fill="#e7b979" opacity=".72"/><circle cx="199" cy="355" r="3" fill="#e7b979" opacity=".72"/><circle cx="378" cy="381" r="3" fill="#e7b979" opacity=".72"/><circle cx="32" cy="137" r="1" fill="#e7b979" opacity=".72"/><circle cx="201" cy="120" r="3" fill="#e7b979" opacity=".72"/><circle cx="164" cy="213" r="1" fill="#e7b979" opacity=".72"/><circle cx="271" cy="226" r="2" fill="#e7b979" opacity=".72"/><circle cx="332" cy="277" r="1" fill="#e7b979" opacity=".72"/><circle cx="265" cy="418" r="2" fill="#e7b979" opacity=".72"/><circle cx="324" cy="414" r="3" fill="#e7b979" opacity=".72"/><circle cx="341" cy="180" r="2" fill="#e7b979" opacity=".72"/><circle cx="214" cy="305" r="1" fill="#e7b979" opacity=".72"/><circle cx="281" cy="157" r="2" fill="#e7b979" opacity=".72"/><circle cx="27" cy="293" r="3" fill="#e7b979" opacity=".72"/><circle cx="176" cy="408" r="3" fill="#e7b979" opacity=".72"/><circle cx="187" cy="185" r="3" fill="#e7b979" opacity=".72"/><circle cx="291" cy="450" r="3" fill="#e7b979" opacity=".72"/><circle cx="251" cy="431" r="3" fill="#e7b979" opacity=".72"/><circle cx="350" cy="104" r="2" fill="#e7b979" opacity=".72"/><circle cx="96" cy="212" r="2" fill="#e7b979" opacity=".72"/><circle cx="311" cy="107" r="2" fill="#e7b979" opacity=".72"/><circle cx="323" cy="60" r="1" fill="#e7b979" opacity=".72"/><circle cx="221" cy="240" r="2" fill="#e7b979" opacity=".72"/><circle cx="252" cy="137" r="2" fill="#e7b979" opacity=".72"/>
    <circle cx="205" cy="221" r="97" fill="url(#moon)" opacity=".88"/>
    <path d="M125 306 Q200 80 275 306 Q248 280 235 315 Q200 273 165 315 Q145 285 125 306Z" fill="#1b3545" stroke="#e7b979" stroke-width="3"/>
    <path d="M151 309 Q200 354 249 309 L281 476 Q203 513 119 476Z" fill="#1b3545" stroke="#e7b979" stroke-width="3"/>
    <path d="M164 370 Q200 322 236 370 M153 416 Q200 375 247 416" fill="none" stroke="#8dbfb6" stroke-width="6" opacity=".8"/>
    <path d="M0 360 Q100 280 200 350 T400 330 V560 H0Z" fill="#8dbfb6" opacity="0.11"/><path d="M0 392 Q100 307 200 378 T400 362 V560 H0Z" fill="#8dbfb6" opacity="0.16999999999999998"/><path d="M0 424 Q100 334 200 406 T400 394 V560 H0Z" fill="#8dbfb6" opacity="0.22999999999999998"/><path d="M0 456 Q100 361 200 434 T400 426 V560 H0Z" fill="#8dbfb6" opacity="0.29"/><path d="M30 35 H370 V525 H30Z" fill="none" stroke="#e7b979" stroke-width="2" opacity=".75"/>
    <path d="M45 50 H355 V510 H45Z" fill="none" stroke="#8dbfb6" stroke-width="1" opacity=".55"/>
    <text x="200" y="537" fill="#fff2d6" text-anchor="middle" font-family="serif" font-size="16">The Recut</text></svg>